{
    "asset" : {
        "generator" : "Khronos glTF Blender I/O v3.4.49",
        "version" : "2.0"
    },
    "extensionsUsed" : [
        "KHR_texture_transform"
    ],
    "extensionsRequired" : [
        "KHR_texture_transform"
    ],
    "scene" : 0,
    "scenes" : [
        {
            "name" : "Scene",
            "nodes" : [
                0
            ]
        }
    ],
    "nodes" : [
        {
            "mesh" : 0,
            "name" : "Cartier.Strap.MF.3B",
            "translation" : [
                -0.33492088317871094,
                1.8751953840255737,
                0.0007466137176379561
            ]
        }
    ],
    "materials" : [
        {
            "doubleSided" : true,
            "name" : "Cartier_Bronze",
            "normalTexture" : {
                "index" : 0
            },
            "pbrMetallicRoughness" : {
                "baseColorTexture" : {
                    "index" : 1
                },
                "metallicRoughnessTexture" : {
                    "index" : 2
                }
            }
        },
        {
            "doubleSided" : true,
            "name" : "Face_Middle.Bronze",
            "normalTexture" : {
                "index" : 3
            },
            "pbrMetallicRoughness" : {
                "baseColorTexture" : {
                    "index" : 4
                },
                "metallicRoughnessTexture" : {
                    "index" : 5
                }
            }
        },
        {
            "doubleSided" : true,
            "emissiveFactor" : [
                1,
                1,
                1
            ],
            "emissiveTexture" : {
                "extensions" : {
                    "KHR_texture_transform" : {
                        "offset" : [
                            -0.009999999776482582,
                            -0.009999999776482582
                        ]
                    }
                },
                "index" : 6
            },
            "name" : "Display.005",
            "pbrMetallicRoughness" : {
                "baseColorTexture" : {
                    "extensions" : {
                        "KHR_texture_transform" : {
                            "offset" : [
                                -0.009999999776482582,
                                -0.009999999776482582
                            ]
                        }
                    },
                    "index" : 7
                },
                "metallicFactor" : 0,
                "roughnessFactor" : 0.3721776008605957
            }
        },
        {
            "doubleSided" : true,
            "name" : "Face_RubbyWhite.004",
            "normalTexture" : {
                "index" : 8
            },
            "pbrMetallicRoughness" : {
                "baseColorTexture" : {
                    "index" : 9
                },
                "metallicRoughnessTexture" : {
                    "index" : 10
                }
            }
        },
        {
            "doubleSided" : true,
            "name" : "Screws_Titanium",
            "normalTexture" : {
                "index" : 11
            },
            "pbrMetallicRoughness" : {
                "baseColorTexture" : {
                    "index" : 12
                },
                "metallicRoughnessTexture" : {
                    "index" : 13
                }
            }
        },
        {
            "doubleSided" : true,
            "name" : "Back_.CarbonGreen",
            "normalTexture" : {
                "index" : 14
            },
            "pbrMetallicRoughness" : {
                "baseColorFactor" : [
                    0.017488030716776848,
                    0.038533952087163925,
                    0.005308238323777914,
                    1
                ],
                "metallicRoughnessTexture" : {
                    "index" : 15
                }
            }
        }
    ],
    "meshes" : [
        {
            "name" : "Plane.001",
            "primitives" : [
                {
                    "attributes" : {
                        "POSITION" : 0,
                        "TEXCOORD_0" : 1,
                        "TEXCOORD_1" : 2,
                        "TEXCOORD_2" : 3,
                        "NORMAL" : 4
                    },
                    "indices" : 5,
                    "material" : 0
                },
                {
                    "attributes" : {
                        "POSITION" : 6,
                        "TEXCOORD_0" : 7,
                        "TEXCOORD_1" : 8,
                        "TEXCOORD_2" : 9,
                        "NORMAL" : 10
                    },
                    "indices" : 11,
                    "material" : 1
                },
                {
                    "attributes" : {
                        "POSITION" : 12,
                        "TEXCOORD_0" : 13,
                        "TEXCOORD_1" : 14,
                        "TEXCOORD_2" : 15,
                        "NORMAL" : 16
                    },
                    "indices" : 17,
                    "material" : 2
                },
                {
                    "attributes" : {
                        "POSITION" : 18,
                        "TEXCOORD_0" : 19,
                        "TEXCOORD_1" : 20,
                        "TEXCOORD_2" : 21,
                        "NORMAL" : 22
                    },
                    "indices" : 23,
                    "material" : 3
                },
                {
                    "attributes" : {
                        "POSITION" : 24,
                        "TEXCOORD_0" : 25,
                        "TEXCOORD_1" : 26,
                        "TEXCOORD_2" : 27,
                        "NORMAL" : 28
                    },
                    "indices" : 29,
                    "material" : 4
                },
                {
                    "attributes" : {
                        "POSITION" : 30,
                        "TEXCOORD_0" : 31,
                        "TEXCOORD_1" : 32,
                        "TEXCOORD_2" : 33,
                        "NORMAL" : 34
                    },
                    "indices" : 35,
                    "material" : 5
                }
            ]
        }
    ],
    "textures" : [
        {
            "sampler" : 0,
            "source" : 0
        },
        {
            "sampler" : 0,
            "source" : 1
        },
        {
            "sampler" : 0,
            "source" : 2
        },
        {
            "sampler" : 0,
            "source" : 3
        },
        {
            "sampler" : 0,
            "source" : 4
        },
        {
            "sampler" : 0,
            "source" : 5
        },
        {
            "sampler" : 0,
            "source" : 6
        },
        {
            "sampler" : 0,
            "source" : 6
        },
        {
            "sampler" : 0,
            "source" : 7
        },
        {
            "sampler" : 0,
            "source" : 8
        },
        {
            "sampler" : 0,
            "source" : 9
        },
        {
            "sampler" : 0,
            "source" : 10
        },
        {
            "sampler" : 0,
            "source" : 11
        },
        {
            "sampler" : 0,
            "source" : 12
        },
        {
            "sampler" : 0,
            "source" : 13
        },
        {
            "sampler" : 0,
            "source" : 14
        }
    ],
    "images" : [
        {
            "mimeType" : "image/jpeg",
            "name" : "Strap_Normal",
            "uri" : "textures/Strap_Normal.jpg"
        },
        {
            "mimeType" : "image/jpeg",
            "name" : "Strap_BaseColor",
            "uri" : "textures/Strap_BaseColor.jpg"
        },
        {
            "mimeType" : "image/jpeg",
            "name" : "Strap_Metallic_jpg-Strap_Roughness_jpg",
            "uri" : "textures/Strap_Metallic_jpg-Strap_Roughness_jpg.jpg"
        },
        {
            "mimeType" : "image/jpeg",
            "name" : "Face_Middle_Normal",
            "uri" : "textures/Face_Middle_Normal.jpg"
        },
        {
            "mimeType" : "image/jpeg",
            "name" : "Face_Middle_BaseColor",
            "uri" : "textures/Face_Middle_BaseColor.jpg"
        },
        {
            "mimeType" : "image/jpeg",
            "name" : "Face_Middle_Metallic-Face_Middle_Roughness",
            "uri" : "textures/Face_Middle_Metallic-Face_Middle_Roughness.jpg"
        },
        {
            "mimeType" : "image/jpeg",
            "name" : "Watch_UI_Test",
            "uri" : "textures/Watch_UI_Test.jpg"
        },
        {
            "mimeType" : "image/jpeg",
            "name" : "Face_Front_Normal",
            "uri" : "textures/Face_Front_Normal.jpg"
        },
        {
            "mimeType" : "image/jpeg",
            "name" : "Face_Front_BaseColor",
            "uri" : "textures/Face_Front_BaseColor.jpg"
        },
        {
            "mimeType" : "image/jpeg",
            "name" : "Face_Front_Metallic_jpg-Face_Front_Roughness_jpg",
            "uri" : "textures/Face_Front_Metallic_jpg-Face_Front_Roughness_jpg.jpg"
        },
        {
            "mimeType" : "image/jpeg",
            "name" : "Face_Screws_Normal",
            "uri" : "textures/Face_Screws_Normal.jpg"
        },
        {
            "mimeType" : "image/jpeg",
            "name" : "Face_Screws_BaseColor",
            "uri" : "textures/Face_Screws_BaseColor.jpg"
        },
        {
            "mimeType" : "image/jpeg",
            "name" : "Face_Screws_Metallic_jpg-Face_Screws_Roughness_jpg",
            "uri" : "textures/Face_Screws_Metallic_jpg-Face_Screws_Roughness_jpg.jpg"
        },
        {
            "mimeType" : "image/jpeg",
            "name" : "Face_Back_Normal",
            "uri" : "textures/Face_Back_Normal.jpg"
        },
        {
            "mimeType" : "image/jpeg",
            "name" : "Face_Back_Metallic_jpg-Face_Back_Roughness_jpg",
            "uri" : "textures/Face_Back_Metallic_jpg-Face_Back_Roughness_jpg.jpg"
        }
    ],
    "accessors" : [
        {
            "bufferView" : 0,
            "componentType" : 5126,
            "count" : 34491,
            "max" : [
                0.1307975947856903,
                0.32301637530326843,
                0.23985010385513306
            ],
            "min" : [
                -0.12973704934120178,
                -0.32600101828575134,
                -0.2828214466571808
            ],
            "type" : "VEC3"
        },
        {
            "bufferView" : 1,
            "componentType" : 5126,
            "count" : 34491,
            "type" : "VEC2"
        },
        {
            "bufferView" : 2,
            "componentType" : 5126,
            "count" : 34491,
            "type" : "VEC2"
        },
        {
            "bufferView" : 3,
            "componentType" : 5126,
            "count" : 34491,
            "type" : "VEC2"
        },
        {
            "bufferView" : 4,
            "componentType" : 5126,
            "count" : 34491,
            "type" : "VEC3"
        },
        {
            "bufferView" : 5,
            "componentType" : 5123,
            "count" : 89592,
            "type" : "SCALAR"
        },
        {
            "bufferView" : 6,
            "componentType" : 5126,
            "count" : 28086,
            "max" : [
                0.2591378688812256,
                0.2362138330936432,
                0.3008836805820465
            ],
            "min" : [
                -0.19440871477127075,
                -0.2362138330936432,
                0.15268534421920776
            ],
            "type" : "VEC3"
        },
        {
            "bufferView" : 7,
            "componentType" : 5126,
            "count" : 28086,
            "type" : "VEC2"
        },
        {
            "bufferView" : 8,
            "componentType" : 5126,
            "count" : 28086,
            "type" : "VEC2"
        },
        {
            "bufferView" : 9,
            "componentType" : 5126,
            "count" : 28086,
            "type" : "VEC2"
        },
        {
            "bufferView" : 10,
            "componentType" : 5126,
            "count" : 28086,
            "type" : "VEC3"
        },
        {
            "bufferView" : 11,
            "componentType" : 5123,
            "count" : 82752,
            "type" : "SCALAR"
        },
        {
            "bufferView" : 12,
            "componentType" : 5126,
            "count" : 732,
            "max" : [
                0.15959832072257996,
                0.17118757963180542,
                0.31701281666755676
            ],
            "min" : [
                -0.1585368812084198,
                -0.17118757963180542,
                0.28929662704467773
            ],
            "type" : "VEC3"
        },
        {
            "bufferView" : 13,
            "componentType" : 5126,
            "count" : 732,
            "type" : "VEC2"
        },
        {
            "bufferView" : 14,
            "componentType" : 5126,
            "count" : 732,
            "type" : "VEC2"
        },
        {
            "bufferView" : 15,
            "componentType" : 5126,
            "count" : 732,
            "type" : "VEC2"
        },
        {
            "bufferView" : 16,
            "componentType" : 5126,
            "count" : 732,
            "type" : "VEC3"
        },
        {
            "bufferView" : 17,
            "componentType" : 5123,
            "count" : 3456,
            "type" : "SCALAR"
        },
        {
            "bufferView" : 18,
            "componentType" : 5126,
            "count" : 9442,
            "max" : [
                0.209852397441864,
                0.24704086780548096,
                0.3241071105003357
            ],
            "min" : [
                -0.20879095792770386,
                -0.24704086780548096,
                0.21403756737709045
            ],
            "type" : "VEC3"
        },
        {
            "bufferView" : 19,
            "componentType" : 5126,
            "count" : 9442,
            "type" : "VEC2"
        },
        {
            "bufferView" : 20,
            "componentType" : 5126,
            "count" : 9442,
            "type" : "VEC2"
        },
        {
            "bufferView" : 21,
            "componentType" : 5126,
            "count" : 9442,
            "type" : "VEC2"
        },
        {
            "bufferView" : 22,
            "componentType" : 5126,
            "count" : 9442,
            "type" : "VEC3"
        },
        {
            "bufferView" : 23,
            "componentType" : 5123,
            "count" : 45888,
            "type" : "SCALAR"
        },
        {
            "bufferView" : 24,
            "componentType" : 5126,
            "count" : 2716,
            "max" : [
                0.1904752254486084,
                0.20357081294059753,
                0.1675679236650467
            ],
            "min" : [
                -0.1904752254486084,
                -0.20357078313827515,
                0.14018023014068604
            ],
            "type" : "VEC3"
        },
        {
            "bufferView" : 25,
            "componentType" : 5126,
            "count" : 2716,
            "type" : "VEC2"
        },
        {
            "bufferView" : 26,
            "componentType" : 5126,
            "count" : 2716,
            "type" : "VEC2"
        },
        {
            "bufferView" : 27,
            "componentType" : 5126,
            "count" : 2716,
            "type" : "VEC2"
        },
        {
            "bufferView" : 28,
            "componentType" : 5126,
            "count" : 2716,
            "type" : "VEC3"
        },
        {
            "bufferView" : 29,
            "componentType" : 5123,
            "count" : 9888,
            "type" : "SCALAR"
        },
        {
            "bufferView" : 30,
            "componentType" : 5126,
            "count" : 9377,
            "max" : [
                0.20730175077915192,
                0.22228588163852692,
                0.1814570277929306
            ],
            "min" : [
                -0.20730175077915192,
                -0.22228585183620453,
                0.130575492978096
            ],
            "type" : "VEC3"
        },
        {
            "bufferView" : 31,
            "componentType" : 5126,
            "count" : 9377,
            "type" : "VEC2"
        },
        {
            "bufferView" : 32,
            "componentType" : 5126,
            "count" : 9377,
            "type" : "VEC2"
        },
        {
            "bufferView" : 33,
            "componentType" : 5126,
            "count" : 9377,
            "type" : "VEC2"
        },
        {
            "bufferView" : 34,
            "componentType" : 5126,
            "count" : 9377,
            "type" : "VEC3"
        },
        {
            "bufferView" : 35,
            "componentType" : 5123,
            "count" : 39564,
            "type" : "SCALAR"
        }
    ],
    "bufferViews" : [
        {
            "buffer" : 0,
            "byteLength" : 413892,
            "byteOffset" : 0,
            "target" : 34962
        },
        {
            "buffer" : 0,
            "byteLength" : 275928,
            "byteOffset" : 413892,
            "target" : 34962
        },
        {
            "buffer" : 0,
            "byteLength" : 275928,
            "byteOffset" : 689820,
            "target" : 34962
        },
        {
            "buffer" : 0,
            "byteLength" : 275928,
            "byteOffset" : 965748,
            "target" : 34962
        },
        {
            "buffer" : 0,
            "byteLength" : 413892,
            "byteOffset" : 1241676,
            "target" : 34962
        },
        {
            "buffer" : 0,
            "byteLength" : 179184,
            "byteOffset" : 1655568,
            "target" : 34963
        },
        {
            "buffer" : 0,
            "byteLength" : 337032,
            "byteOffset" : 1834752,
            "target" : 34962
        },
        {
            "buffer" : 0,
            "byteLength" : 224688,
            "byteOffset" : 2171784,
            "target" : 34962
        },
        {
            "buffer" : 0,
            "byteLength" : 224688,
            "byteOffset" : 2396472,
            "target" : 34962
        },
        {
            "buffer" : 0,
            "byteLength" : 224688,
            "byteOffset" : 2621160,
            "target" : 34962
        },
        {
            "buffer" : 0,
            "byteLength" : 337032,
            "byteOffset" : 2845848,
            "target" : 34962
        },
        {
            "buffer" : 0,
            "byteLength" : 165504,
            "byteOffset" : 3182880,
            "target" : 34963
        },
        {
            "buffer" : 0,
            "byteLength" : 8784,
            "byteOffset" : 3348384,
            "target" : 34962
        },
        {
            "buffer" : 0,
            "byteLength" : 5856,
            "byteOffset" : 3357168,
            "target" : 34962
        },
        {
            "buffer" : 0,
            "byteLength" : 5856,
            "byteOffset" : 3363024,
            "target" : 34962
        },
        {
            "buffer" : 0,
            "byteLength" : 5856,
            "byteOffset" : 3368880,
            "target" : 34962
        },
        {
            "buffer" : 0,
            "byteLength" : 8784,
            "byteOffset" : 3374736,
            "target" : 34962
        },
        {
            "buffer" : 0,
            "byteLength" : 6912,
            "byteOffset" : 3383520,
            "target" : 34963
        },
        {
            "buffer" : 0,
            "byteLength" : 113304,
            "byteOffset" : 3390432,
            "target" : 34962
        },
        {
            "buffer" : 0,
            "byteLength" : 75536,
            "byteOffset" : 3503736,
            "target" : 34962
        },
        {
            "buffer" : 0,
            "byteLength" : 75536,
            "byteOffset" : 3579272,
            "target" : 34962
        },
        {
            "buffer" : 0,
            "byteLength" : 75536,
            "byteOffset" : 3654808,
            "target" : 34962
        },
        {
            "buffer" : 0,
            "byteLength" : 113304,
            "byteOffset" : 3730344,
            "target" : 34962
        },
        {
            "buffer" : 0,
            "byteLength" : 91776,
            "byteOffset" : 3843648,
            "target" : 34963
        },
        {
            "buffer" : 0,
            "byteLength" : 32592,
            "byteOffset" : 3935424,
            "target" : 34962
        },
        {
            "buffer" : 0,
            "byteLength" : 21728,
            "byteOffset" : 3968016,
            "target" : 34962
        },
        {
            "buffer" : 0,
            "byteLength" : 21728,
            "byteOffset" : 3989744,
            "target" : 34962
        },
        {
            "buffer" : 0,
            "byteLength" : 21728,
            "byteOffset" : 4011472,
            "target" : 34962
        },
        {
            "buffer" : 0,
            "byteLength" : 32592,
            "byteOffset" : 4033200,
            "target" : 34962
        },
        {
            "buffer" : 0,
            "byteLength" : 19776,
            "byteOffset" : 4065792,
            "target" : 34963
        },
        {
            "buffer" : 0,
            "byteLength" : 112524,
            "byteOffset" : 4085568,
            "target" : 34962
        },
        {
            "buffer" : 0,
            "byteLength" : 75016,
            "byteOffset" : 4198092,
            "target" : 34962
        },
        {
            "buffer" : 0,
            "byteLength" : 75016,
            "byteOffset" : 4273108,
            "target" : 34962
        },
        {
            "buffer" : 0,
            "byteLength" : 75016,
            "byteOffset" : 4348124,
            "target" : 34962
        },
        {
            "buffer" : 0,
            "byteLength" : 112524,
            "byteOffset" : 4423140,
            "target" : 34962
        },
        {
            "buffer" : 0,
            "byteLength" : 79128,
            "byteOffset" : 4535664,
            "target" : 34963
        }
    ],
    "samplers" : [
        {
            "magFilter" : 9729,
            "minFilter" : 9987
        }
    ],
    "buffers" : [
        {
            "byteLength" : 4614792,
            "uri" : "millie.bin"
        }
    ]
}
