{
    "asset" : {
        "generator" : "Khronos glTF Blender I/O v3.2.43",
        "version" : "2.0"
    },
    "extensionsUsed" : [
        "KHR_texture_transform"
    ],
    "extensionsRequired" : [
        "KHR_texture_transform"
    ],
    "scene" : 0,
    "scenes" : [
        {
            "name" : "Scene",
            "nodes" : [
                0
            ]
        }
    ],
    "nodes" : [
        {
            "mesh" : 0,
            "name" : "Simple.Metal.Strap.CF.3B",
            "translation" : [
                0.2879006862640381,
                -1.8995661735534668,
                0
            ]
        }
    ],
    "materials" : [
        {
            "doubleSided" : true,
            "name" : "SimpleMetal_Titanium",
            "normalTexture" : {
                "index" : 0
            },
            "pbrMetallicRoughness" : {
                "baseColorTexture" : {
                    "index" : 1
                },
                "metallicRoughnessTexture" : {
                    "index" : 2
                }
            }
        },
        {
            "doubleSided" : true,
            "name" : "Face_Middle.Bronze",
            "normalTexture" : {
                "index" : 3
            },
            "pbrMetallicRoughness" : {
                "baseColorTexture" : {
                    "index" : 4
                },
                "metallicRoughnessTexture" : {
                    "index" : 5
                }
            }
        },
        {
            "doubleSided" : true,
            "emissiveFactor" : [
                1,
                1,
                1
            ],
            "emissiveTexture" : {
                "extensions" : {
                    "KHR_texture_transform" : {
                        "offset" : [
                            -0.009999999776482582,
                            -0.009999999776482582
                        ]
                    }
                },
                "index" : 6
            },
            "name" : "Display.006",
            "pbrMetallicRoughness" : {
                "baseColorTexture" : {
                    "extensions" : {
                        "KHR_texture_transform" : {
                            "offset" : [
                                -0.009999999776482582,
                                -0.009999999776482582
                            ]
                        }
                    },
                    "index" : 7
                },
                "metallicFactor" : 0,
                "roughnessFactor" : 0.3721776008605957
            }
        },
        {
            "doubleSided" : true,
            "name" : "Front_Titanium_Viper",
            "normalTexture" : {
                "index" : 8
            },
            "pbrMetallicRoughness" : {
                "baseColorTexture" : {
                    "index" : 9
                },
                "metallicRoughnessTexture" : {
                    "index" : 10
                }
            }
        },
        {
            "doubleSided" : true,
            "name" : "Back_Titanium",
            "normalTexture" : {
                "index" : 11
            },
            "pbrMetallicRoughness" : {
                "baseColorTexture" : {
                    "index" : 12
                },
                "metallicRoughnessTexture" : {
                    "index" : 13
                }
            }
        },
        {
            "doubleSided" : true,
            "name" : "Screws_TitaniumViper",
            "normalTexture" : {
                "index" : 14
            },
            "pbrMetallicRoughness" : {
                "baseColorTexture" : {
                    "index" : 15
                },
                "metallicRoughnessTexture" : {
                    "index" : 16
                }
            }
        }
    ],
    "meshes" : [
        {
            "name" : "Plane.051",
            "primitives" : [
                {
                    "attributes" : {
                        "POSITION" : 0,
                        "NORMAL" : 1,
                        "TEXCOORD_0" : 2,
                        "TEXCOORD_1" : 3,
                        "TEXCOORD_2" : 4
                    },
                    "indices" : 5,
                    "material" : 0
                },
                {
                    "attributes" : {
                        "POSITION" : 6,
                        "NORMAL" : 7,
                        "TEXCOORD_0" : 8,
                        "TEXCOORD_1" : 9,
                        "TEXCOORD_2" : 10
                    },
                    "indices" : 11,
                    "material" : 1
                },
                {
                    "attributes" : {
                        "POSITION" : 12,
                        "NORMAL" : 13,
                        "TEXCOORD_0" : 14,
                        "TEXCOORD_1" : 15,
                        "TEXCOORD_2" : 16
                    },
                    "indices" : 17,
                    "material" : 2
                },
                {
                    "attributes" : {
                        "POSITION" : 18,
                        "NORMAL" : 19,
                        "TEXCOORD_0" : 20,
                        "TEXCOORD_1" : 21,
                        "TEXCOORD_2" : 22
                    },
                    "indices" : 23,
                    "material" : 3
                },
                {
                    "attributes" : {
                        "POSITION" : 24,
                        "NORMAL" : 25,
                        "TEXCOORD_0" : 26,
                        "TEXCOORD_1" : 27,
                        "TEXCOORD_2" : 28
                    },
                    "indices" : 29,
                    "material" : 4
                },
                {
                    "attributes" : {
                        "POSITION" : 30,
                        "NORMAL" : 31,
                        "TEXCOORD_0" : 32,
                        "TEXCOORD_1" : 33,
                        "TEXCOORD_2" : 34
                    },
                    "indices" : 35,
                    "material" : 5
                }
            ]
        }
    ],
    "textures" : [
        {
            "sampler" : 0,
            "source" : 0
        },
        {
            "sampler" : 0,
            "source" : 1
        },
        {
            "sampler" : 0,
            "source" : 2
        },
        {
            "sampler" : 0,
            "source" : 3
        },
        {
            "sampler" : 0,
            "source" : 4
        },
        {
            "sampler" : 0,
            "source" : 5
        },
        {
            "sampler" : 0,
            "source" : 6
        },
        {
            "sampler" : 0,
            "source" : 6
        },
        {
            "sampler" : 0,
            "source" : 7
        },
        {
            "sampler" : 0,
            "source" : 8
        },
        {
            "sampler" : 0,
            "source" : 9
        },
        {
            "sampler" : 0,
            "source" : 10
        },
        {
            "sampler" : 0,
            "source" : 11
        },
        {
            "sampler" : 0,
            "source" : 12
        },
        {
            "sampler" : 0,
            "source" : 13
        },
        {
            "sampler" : 0,
            "source" : 14
        },
        {
            "sampler" : 0,
            "source" : 15
        }
    ],
    "images" : [
        {
            "mimeType" : "image/png",
            "name" : "Strap_Normal",
            "uri" : "Strap_Normal.png"
        },
        {
            "mimeType" : "image/png",
            "name" : "Strap_BaseColor",
            "uri" : "Strap_BaseColor.png"
        },
        {
            "mimeType" : "image/png",
            "name" : "Strap_Metallic.png-Strap_Roughness.png",
            "uri" : "Strap_Metallic_png-Strap_Roughness_png.png"
        },
        {
            "mimeType" : "image/jpeg",
            "name" : "Face_Middle_Normal",
            "uri" : "Face_Middle_Normal.jpg"
        },
        {
            "mimeType" : "image/jpeg",
            "name" : "Face_Middle_BaseColor",
            "uri" : "Face_Middle_BaseColor.jpg"
        },
        {
            "mimeType" : "image/png",
            "name" : "Face_Middle_Metallic-Face_Middle_Roughness",
            "uri" : "Face_Middle_Metallic-Face_Middle_Roughness.png"
        },
        {
            "mimeType" : "image/png",
            "name" : "Watch_UI_Test",
            "uri" : "Watch_UI_Test.png"
        },
        {
            "mimeType" : "image/jpeg",
            "name" : "Face_Front_Normal",
            "uri" : "Face_Front_Normal.jpg"
        },
        {
            "mimeType" : "image/jpeg",
            "name" : "Face_Front_BaseColor",
            "uri" : "Face_Front_BaseColor.jpg"
        },
        {
            "mimeType" : "image/png",
            "name" : "Face_Front_Metallic-Face_Front_Roughness",
            "uri" : "Face_Front_Metallic-Face_Front_Roughness.png"
        },
        {
            "mimeType" : "image/jpeg",
            "name" : "Face_Back_Normal",
            "uri" : "Face_Back_Normal.jpg"
        },
        {
            "mimeType" : "image/jpeg",
            "name" : "Face_Back_BaseColor",
            "uri" : "Face_Back_BaseColor.jpg"
        },
        {
            "mimeType" : "image/png",
            "name" : "Face_Back_Metallic.jpg-Face_Back_Roughness.jpg",
            "uri" : "Face_Back_Metallic_jpg-Face_Back_Roughness_jpg.png"
        },
        {
            "mimeType" : "image/jpeg",
            "name" : "Face_Screws_Normal",
            "uri" : "Face_Screws_Normal.jpg"
        },
        {
            "mimeType" : "image/jpeg",
            "name" : "Face_Screws_BaseColor",
            "uri" : "Face_Screws_BaseColor.jpg"
        },
        {
            "mimeType" : "image/png",
            "name" : "Face_Screws_Metallic.jpg-Face_Screws_Roughness.jpg",
            "uri" : "Face_Screws_Metallic_jpg-Face_Screws_Roughness_jpg.png"
        }
    ],
    "accessors" : [
        {
            "bufferView" : 0,
            "componentType" : 5126,
            "count" : 11120,
            "max" : [
                0.13026688992977142,
                0.3309227228164673,
                0.24059662222862244
            ],
            "min" : [
                -0.13026778399944305,
                -0.3338519334793091,
                -0.2899075150489807
            ],
            "type" : "VEC3"
        },
        {
            "bufferView" : 1,
            "componentType" : 5126,
            "count" : 11120,
            "type" : "VEC3"
        },
        {
            "bufferView" : 2,
            "componentType" : 5126,
            "count" : 11120,
            "type" : "VEC2"
        },
        {
            "bufferView" : 3,
            "componentType" : 5126,
            "count" : 11120,
            "type" : "VEC2"
        },
        {
            "bufferView" : 4,
            "componentType" : 5126,
            "count" : 11120,
            "type" : "VEC2"
        },
        {
            "bufferView" : 5,
            "componentType" : 5123,
            "count" : 28956,
            "type" : "SCALAR"
        },
        {
            "bufferView" : 6,
            "componentType" : 5126,
            "count" : 18952,
            "max" : [
                0.2586071491241455,
                0.2362138032913208,
                0.3016301989555359
            ],
            "min" : [
                -0.19493943452835083,
                -0.23621386289596558,
                0.15343183279037476
            ],
            "type" : "VEC3"
        },
        {
            "bufferView" : 7,
            "componentType" : 5126,
            "count" : 18952,
            "type" : "VEC3"
        },
        {
            "bufferView" : 8,
            "componentType" : 5126,
            "count" : 18952,
            "type" : "VEC2"
        },
        {
            "bufferView" : 9,
            "componentType" : 5126,
            "count" : 18952,
            "type" : "VEC2"
        },
        {
            "bufferView" : 10,
            "componentType" : 5126,
            "count" : 18952,
            "type" : "VEC2"
        },
        {
            "bufferView" : 11,
            "componentType" : 5123,
            "count" : 82752,
            "type" : "SCALAR"
        },
        {
            "bufferView" : 12,
            "componentType" : 5126,
            "count" : 629,
            "max" : [
                0.1585368812084198,
                0.17118753492832184,
                0.3185058534145355
            ],
            "min" : [
                -0.15959832072257996,
                -0.171187624335289,
                0.2907896339893341
            ],
            "type" : "VEC3"
        },
        {
            "bufferView" : 13,
            "componentType" : 5126,
            "count" : 629,
            "type" : "VEC3"
        },
        {
            "bufferView" : 14,
            "componentType" : 5126,
            "count" : 629,
            "type" : "VEC2"
        },
        {
            "bufferView" : 15,
            "componentType" : 5126,
            "count" : 629,
            "type" : "VEC2"
        },
        {
            "bufferView" : 16,
            "componentType" : 5126,
            "count" : 629,
            "type" : "VEC2"
        },
        {
            "bufferView" : 17,
            "componentType" : 5123,
            "count" : 3456,
            "type" : "SCALAR"
        },
        {
            "bufferView" : 18,
            "componentType" : 5126,
            "count" : 10897,
            "max" : [
                0.20879095792770386,
                0.24704082310199738,
                0.32560014724731445
            ],
            "min" : [
                -0.209852397441864,
                -0.24704091250896454,
                0.21553055942058563
            ],
            "type" : "VEC3"
        },
        {
            "bufferView" : 19,
            "componentType" : 5126,
            "count" : 10897,
            "type" : "VEC3"
        },
        {
            "bufferView" : 20,
            "componentType" : 5126,
            "count" : 10897,
            "type" : "VEC2"
        },
        {
            "bufferView" : 21,
            "componentType" : 5126,
            "count" : 10897,
            "type" : "VEC2"
        },
        {
            "bufferView" : 22,
            "componentType" : 5126,
            "count" : 10897,
            "type" : "VEC2"
        },
        {
            "bufferView" : 23,
            "componentType" : 5123,
            "count" : 55104,
            "type" : "SCALAR"
        },
        {
            "bufferView" : 24,
            "componentType" : 5126,
            "count" : 8992,
            "max" : [
                0.20677103102207184,
                0.22228585183620453,
                0.18220354616641998
            ],
            "min" : [
                -0.207832470536232,
                -0.22228588163852692,
                0.131321981549263
            ],
            "type" : "VEC3"
        },
        {
            "bufferView" : 25,
            "componentType" : 5126,
            "count" : 8992,
            "type" : "VEC3"
        },
        {
            "bufferView" : 26,
            "componentType" : 5126,
            "count" : 8992,
            "type" : "VEC2"
        },
        {
            "bufferView" : 27,
            "componentType" : 5126,
            "count" : 8992,
            "type" : "VEC2"
        },
        {
            "bufferView" : 28,
            "componentType" : 5126,
            "count" : 8992,
            "type" : "VEC2"
        },
        {
            "bufferView" : 29,
            "componentType" : 5123,
            "count" : 39564,
            "type" : "SCALAR"
        },
        {
            "bufferView" : 30,
            "componentType" : 5126,
            "count" : 4696,
            "max" : [
                0.18994450569152832,
                0.24040958285331726,
                0.31980520486831665
            ],
            "min" : [
                -0.19100594520568848,
                -0.24040967226028442,
                0.14092671871185303
            ],
            "type" : "VEC3"
        },
        {
            "bufferView" : 31,
            "componentType" : 5126,
            "count" : 4696,
            "type" : "VEC3"
        },
        {
            "bufferView" : 32,
            "componentType" : 5126,
            "count" : 4696,
            "type" : "VEC2"
        },
        {
            "bufferView" : 33,
            "componentType" : 5126,
            "count" : 4696,
            "type" : "VEC2"
        },
        {
            "bufferView" : 34,
            "componentType" : 5126,
            "count" : 4696,
            "type" : "VEC2"
        },
        {
            "bufferView" : 35,
            "componentType" : 5123,
            "count" : 19968,
            "type" : "SCALAR"
        }
    ],
    "bufferViews" : [
        {
            "buffer" : 0,
            "byteLength" : 133440,
            "byteOffset" : 0
        },
        {
            "buffer" : 0,
            "byteLength" : 133440,
            "byteOffset" : 133440
        },
        {
            "buffer" : 0,
            "byteLength" : 88960,
            "byteOffset" : 266880
        },
        {
            "buffer" : 0,
            "byteLength" : 88960,
            "byteOffset" : 355840
        },
        {
            "buffer" : 0,
            "byteLength" : 88960,
            "byteOffset" : 444800
        },
        {
            "buffer" : 0,
            "byteLength" : 57912,
            "byteOffset" : 533760
        },
        {
            "buffer" : 0,
            "byteLength" : 227424,
            "byteOffset" : 591672
        },
        {
            "buffer" : 0,
            "byteLength" : 227424,
            "byteOffset" : 819096
        },
        {
            "buffer" : 0,
            "byteLength" : 151616,
            "byteOffset" : 1046520
        },
        {
            "buffer" : 0,
            "byteLength" : 151616,
            "byteOffset" : 1198136
        },
        {
            "buffer" : 0,
            "byteLength" : 151616,
            "byteOffset" : 1349752
        },
        {
            "buffer" : 0,
            "byteLength" : 165504,
            "byteOffset" : 1501368
        },
        {
            "buffer" : 0,
            "byteLength" : 7548,
            "byteOffset" : 1666872
        },
        {
            "buffer" : 0,
            "byteLength" : 7548,
            "byteOffset" : 1674420
        },
        {
            "buffer" : 0,
            "byteLength" : 5032,
            "byteOffset" : 1681968
        },
        {
            "buffer" : 0,
            "byteLength" : 5032,
            "byteOffset" : 1687000
        },
        {
            "buffer" : 0,
            "byteLength" : 5032,
            "byteOffset" : 1692032
        },
        {
            "buffer" : 0,
            "byteLength" : 6912,
            "byteOffset" : 1697064
        },
        {
            "buffer" : 0,
            "byteLength" : 130764,
            "byteOffset" : 1703976
        },
        {
            "buffer" : 0,
            "byteLength" : 130764,
            "byteOffset" : 1834740
        },
        {
            "buffer" : 0,
            "byteLength" : 87176,
            "byteOffset" : 1965504
        },
        {
            "buffer" : 0,
            "byteLength" : 87176,
            "byteOffset" : 2052680
        },
        {
            "buffer" : 0,
            "byteLength" : 87176,
            "byteOffset" : 2139856
        },
        {
            "buffer" : 0,
            "byteLength" : 110208,
            "byteOffset" : 2227032
        },
        {
            "buffer" : 0,
            "byteLength" : 107904,
            "byteOffset" : 2337240
        },
        {
            "buffer" : 0,
            "byteLength" : 107904,
            "byteOffset" : 2445144
        },
        {
            "buffer" : 0,
            "byteLength" : 71936,
            "byteOffset" : 2553048
        },
        {
            "buffer" : 0,
            "byteLength" : 71936,
            "byteOffset" : 2624984
        },
        {
            "buffer" : 0,
            "byteLength" : 71936,
            "byteOffset" : 2696920
        },
        {
            "buffer" : 0,
            "byteLength" : 79128,
            "byteOffset" : 2768856
        },
        {
            "buffer" : 0,
            "byteLength" : 56352,
            "byteOffset" : 2847984
        },
        {
            "buffer" : 0,
            "byteLength" : 56352,
            "byteOffset" : 2904336
        },
        {
            "buffer" : 0,
            "byteLength" : 37568,
            "byteOffset" : 2960688
        },
        {
            "buffer" : 0,
            "byteLength" : 37568,
            "byteOffset" : 2998256
        },
        {
            "buffer" : 0,
            "byteLength" : 37568,
            "byteOffset" : 3035824
        },
        {
            "buffer" : 0,
            "byteLength" : 39936,
            "byteOffset" : 3073392
        }
    ],
    "samplers" : [
        {
            "magFilter" : 9729,
            "minFilter" : 9987
        }
    ],
    "buffers" : [
        {
            "byteLength" : 3113328,
            "uri" : "Watches_FBX_Export.bin"
        }
    ]
}
